<?xml version="1.0" encoding="UTF-8"?>
<svg data-bbox="227 120 2689.479 1010" viewBox="0 0 3050 1210" height="121" width="305" xmlns="http://www.w3.org/2000/svg" data-type="color">
    <g>
        <path d="M2170 1128c0-3 43-241 100-552 17-93 39-180 48-194 30-46 64-52 285-52 330 0 340 9 293 271-35 191-41 217-60 238-30 33-87 41-279 41-183 0-185 0-190 23-3 12-13 68-23 125l-19 102h-77c-43 0-78-1-78-2zm532-410c13-12 37-97 54-200l6-38h-150c-108 0-152 3-160 13-6 7-18 53-27 102-9 50-19 100-22 113l-5 22h144c100 0 149-4 160-12z" fill="#fff" data-color="1"/>
        <path d="M324 888c-65-55-84-81-91-123l-6-35h231c265 0 242 9 262-105 19-114 11-105 101-105 44 0 78 4 75 9s-17 72-31 150c-13 78-27 147-31 152-4 6-25 20-48 30-35 16-67 19-218 19H390v25c0 14-4 25-8 25s-31-19-58-42z" fill="#fff" data-color="1"/>
        <path d="M953 865c-17-7-39-26-49-40-20-30-21-15 35-312 26-139 26-139 75-162 39-19 61-21 249-21 259 0 287 9 311 95 3 11-1 59-10 105-9 47-18 97-21 113l-5 27h-238c-208 0-239 2-244 16-17 44-19 44 229 44h235v29c0 55-19 88-61 105-54 22-457 23-506 1zm448-345c10-6 19-17 19-25 0-13-25-15-153-15h-154l-11 25-12 25h146c81 0 154-5 165-10z" fill="#fff" data-color="1"/>
        <path d="M1620 862c-57-28-65-56-45-157 2-11 16-85 30-165 16-89 33-152 43-164 36-40 72-46 287-46 210 0 253 6 290 43 30 30 27 108-10 267-2 8-4 18-4 23-1 4-109 7-241 7h-240v60h470l-6 33c-19 111-37 117-322 117-187 0-222-2-252-18zm451-342c10-6 19-17 19-25 0-13-25-15-147-15-82 0-153 4-159 8s-13 15-17 25c-6 16 5 17 139 17 81 0 154-5 165-10z" fill="#fff" data-color="1"/>
        <path d="M230 688c0-2 7-37 15-78 9-41 32-168 52-282l38-208h155l-6 33c-3 17-11 65-18 105l-13 72h138c131 0 139-1 139-19 0-11 4-22 8-25 16-9 132 94 147 131 28 66 38 63-214 63-171 0-231 3-239 13-9 11-28 88-39 165l-5 32h-79c-43 0-79-1-79-2z" fill="#fff" data-color="1"/>
    </g>
</svg>
